<svg id="Layer_1" data-name="Layer 1" xmlns="http://www.w3.org/2000/svg" viewBox="0 0 243.33 166.94">
  <title>unlock1</title>
  <circle cx="132.04" cy="83.47" r="83.47" style="fill: #e4f0f4"/>
  <g>
    <rect x="60.67" y="76.52" width="182.67" height="89.33" style="fill: #5f6f82"/>
    <circle cx="152" cy="121.19" r="24" style="fill: #505e6e"/>
    <path d="M153.37,116.44l13.56,9.12a1,1,0,0,1,0,1.66l-13.56,9.11a1,1,0,0,1-1.56-.83V117.27A1,1,0,0,1,153.37,116.44Z" transform="translate(-4.82 -4.36)" style="fill: #fff"/>
    <line x1="63.33" y1="161.02" x2="240.83" y2="161.02" style="fill: #fff;stroke: #fff;stroke-miterlimit: 10;stroke-width: 0.5px"/>
  </g>
  <g>
    <rect y="33.48" width="203.38" height="33.5" style="fill: #505e6e"/>
    <text transform="translate(11.6 57.89)" style="font-size: 22.393369674682617px;fill: #fff;font-family: FontAwesome, FontAwesome"></text>
    <rect x="43" y="33.48" width="34.33" height="33.5" style="fill: #5f6f82"/>
    <text transform="translate(90.12 53.85)" style="font-size: 11px;fill: #fff;font-family: Lato-Regular, Lato;letter-spacing: -0.07998934659090909em">T<tspan x="5.61" y="0" style="letter-spacing: -0.018998579545454544em">r</tspan><tspan x="9.83" y="0" style="letter-spacing: 0.00004438920454545455em">ack One</tspan></text>
  </g>
  <circle cx="176.33" cy="69.18" r="22.5" style="fill: #5ebf86"/>
  <text transform="translate(168.44 76.61)" style="font-size: 21.507369995117188px;fill: #fff;font-family: FontAwesome, FontAwesome"></text>
</svg>
