<svg id="Layer_1" data-name="Layer 1" xmlns="http://www.w3.org/2000/svg" xmlns:xlink="http://www.w3.org/1999/xlink" viewBox="150 0 400.03 226.89"><defs><clipPath id="clip-path" transform="translate(120.47 12.82)"><polygon points="289.01 165.69 42.72 63.07 173 23.54 419.29 126.16 289.01 165.69" style="fill:none"/></clipPath><linearGradient id="linear-gradient" x1="88.19" y1="-54.86" x2="88.19" y2="71.22" gradientUnits="userSpaceOnUse"><stop offset="0" stop-color="#6181c0"/><stop offset="0.05" stop-color="#5d7ebe"/><stop offset="0.46" stop-color="#4066b0"/><stop offset="0.47" stop-color="#3d61ad"/><stop offset="0.58" stop-color="#2b479c"/><stop offset="0.65" stop-color="#243d96"/><stop offset="1" stop-color="#293072"/></linearGradient><linearGradient id="linear-gradient-2" x1="319.94" y1="-38.79" x2="319.94" y2="105.76" gradientUnits="userSpaceOnUse"><stop offset="0" stop-color="#6181c0"/><stop offset="0.04" stop-color="#5d7ebe"/><stop offset="0.37" stop-color="#4066b0"/><stop offset="0.39" stop-color="#3d61ad"/><stop offset="0.55" stop-color="#2b479c"/><stop offset="0.65" stop-color="#243d96"/><stop offset="1" stop-color="#293072"/></linearGradient><linearGradient id="linear-gradient-3" x1="174.99" y1="22.78" x2="174.99" y2="81.71" xlink:href="#linear-gradient-2"/><linearGradient id="linear-gradient-4" x1="227.58" y1="-2.02" x2="227.58" y2="121.15" xlink:href="#linear-gradient-2"/><linearGradient id="linear-gradient-5" x1="304.12" y1="15.94" x2="304.12" y2="139.11" xlink:href="#linear-gradient-2"/><linearGradient id="linear-gradient-6" x1="245.97" y1="-29.08" x2="245.97" y2="197.86" xlink:href="#linear-gradient-2"/><linearGradient id="linear-gradient-7" x1="349.45" y1="53.99" x2="349.45" y2="178.8" gradientUnits="userSpaceOnUse"><stop offset="0" stop-color="#6181c0"/><stop offset="0.05" stop-color="#5d7ebe"/><stop offset="0.42" stop-color="#4066b0"/><stop offset="0.44" stop-color="#3d61ad"/><stop offset="0.57" stop-color="#2b479c"/><stop offset="0.65" stop-color="#243d96"/><stop offset="1" stop-color="#293072"/></linearGradient><linearGradient id="linear-gradient-8" x1="326.15" y1="84.78" x2="326.15" y2="161.13" gradientTransform="translate(-51.91 11.37) rotate(-1.99)" gradientUnits="userSpaceOnUse"><stop offset="0.01" stop-color="#82a1d0"/><stop offset="0.37" stop-color="#6181c0"/><stop offset="0.56" stop-color="#5678bb"/><stop offset="1" stop-color="#4066b0"/></linearGradient><linearGradient id="linear-gradient-9" x1="228.56" y1="108.35" x2="290.7" y2="150.97" gradientUnits="userSpaceOnUse"><stop offset="0" stop-color="#80a1d4"/><stop offset="0.47" stop-color="#6080c0"/><stop offset="0.62" stop-color="#5678bb"/><stop offset="1" stop-color="#4066b0"/></linearGradient><linearGradient id="linear-gradient-10" x1="316.69" y1="103.8" x2="316.69" y2="130.51" gradientTransform="matrix(1, 0, 0, 1, 0, 0)" xlink:href="#linear-gradient-8"/><linearGradient id="linear-gradient-11" x1="216.47" y1="-12.63" x2="216.47" y2="229.37" xlink:href="#linear-gradient"/><linearGradient id="linear-gradient-12" x1="498.4" y1="135.13" x2="165.47" y2="135.13" gradientUnits="userSpaceOnUse"><stop offset="0" stop-color="#6181c0"/><stop offset="0.02" stop-color="#5577ba"/><stop offset="0.06" stop-color="#496db4"/><stop offset="0.12" stop-color="#4268b1"/><stop offset="0.26" stop-color="#4066b0"/><stop offset="0.27" stop-color="#3d62ae"/><stop offset="0.31" stop-color="#3251a3"/><stop offset="0.36" stop-color="#2a469b"/><stop offset="0.44" stop-color="#253f97"/><stop offset="0.65" stop-color="#243d96"/><stop offset="1" stop-color="#293072"/></linearGradient><linearGradient id="linear-gradient-13" x1="648.05" y1="166.74" x2="348.22" y2="166.74" gradientUnits="userSpaceOnUse"><stop offset="0" stop-color="#6181c0"/><stop offset="0.03" stop-color="#5577ba"/><stop offset="0.09" stop-color="#496db4"/><stop offset="0.16" stop-color="#4268b1"/><stop offset="0.36" stop-color="#4066b0"/><stop offset="0.37" stop-color="#3d62ae"/><stop offset="0.4" stop-color="#3251a3"/><stop offset="0.44" stop-color="#2a469b"/><stop offset="0.49" stop-color="#253f97"/><stop offset="0.65" stop-color="#243d96"/><stop offset="1" stop-color="#293072"/></linearGradient><linearGradient id="linear-gradient-14" x1="382.05" y1="104.46" x2="382.05" y2="146.14" xlink:href="#linear-gradient-2"/></defs><title>Untitled-5</title><polygon points="410.48 215.18 164.19 112.56 294.47 73.03 540.76 175.65 410.48 215.18" style="fill:#e1e8ef"/><g style="clip-path:url(#clip-path)"><path d="M-120.47,1S-99.09-23-69.16-2.45-18.7-7.58,9.52-5,24.66,38.29,87.34,7c37.62-18.82,57.29,6.84,80.38,12,13.75,3.05,37.77-21.17,53-27.37,27.37-11.11,58.29,2.65,58.15.86l18,13.68L248.11,78.79l-327.53-12Z" transform="translate(120.47 12.82)" style="fill:url(#linear-gradient)"/><path d="M122.83,59.55s25.65-41.9,77-14.54c34,18.11,50.46-23.09,78.68-20.52s42.75,39.34,106.89,11.12,72.69,2.56,82.95,5.13,37.63.85,36.78-10.27l12,19.67v58.15l-327.53,6Z" transform="translate(120.47 12.82)" style="fill:url(#linear-gradient-2)"/><path d="M-9.3,70.67s21.38-24,51.31-3.42,50.46-23.09,78.68-20.53,49,32.5,93.21,11.12C277,27.32,300.27,60.4,310.54,63s37.62.86,36.77-10.26l12,19.67v58.15l-327.53,6Z" transform="translate(120.47 12.82)" style="fill:url(#linear-gradient-3)"/><path d="M30.47,85.2s47-35.06,77-14.53,50.46-23.09,78.68-20.53S228.87,89.48,293,61.26s72.69,2.57,83,5.13,37.62.86,36.77-10.26l12,19.67V134l-327.53,6Z" transform="translate(120.47 12.82)" style="fill:url(#linear-gradient-4)"/><path d="M107,103.16s47-35.06,77-14.53,50.46-23.09,78.68-20.53,42.75,39.34,106.89,11.12,72.69,2.56,82.95,5.13,37.63.85,36.77-10.26l12,19.67v58.15l-327.53,6Z" transform="translate(120.47 12.82)" style="fill:url(#linear-gradient-5)"/><path d="M61.68,108.29S83.06,84.35,113,104.87s50.46-23.09,78.68-20.52,49,32.5,93.21,11.12C348,65,371.25,98,381.51,100.6s37.63.85,36.78-10.26l12,19.66v58.16l-327.53,6Z" transform="translate(120.47 12.82)" style="fill:url(#linear-gradient-6)"/><path d="M152.33,148.06s47-35.06,77-14.54S279.75,110.43,308,113s37.38,37.45,80.81-17.53c33.78-42.76,98.77,31.21,109,33.78s37.62.85,36.77-10.27l12,19.67V196.8l-327.53,6Z" transform="translate(120.47 12.82)" style="fill:url(#linear-gradient-7)"/><path d="M320.3,118.3s9,27.38-24.36,28.53-44.72-.78-55.15-12.76-7.93-43.86,19.12-45c39-1.68,34.25,35.17,42,36.57s12.89-6.12,12.89-6.12" transform="translate(120.47 12.82)" style="fill:url(#linear-gradient-8)"/><path d="M268.2,121.12s-4.44,11.21-11.11,3.14c-8.13-9.84-21.52-3.14-21.52-3.14s.28,16.53,19.52,17.1,41.91.72,41.91.72-16.22-5.44-25.09-16.25C270.3,120.73,269.06,118.41,268.2,121.12Z" transform="translate(120.47 12.82)" style="fill:url(#linear-gradient-9)"/><path d="M322,120.24l-5.22-.67-4.66,1.68c-14.29,1.5-12.8-13.23-12.8-13.23s1.71,1.28,10.37,1a8,8,0,0,1,6.84,3.1,8.08,8.08,0,0,1,7-4.24c8.66-.31,10.28-1.7,10.28-1.7S336.4,120.74,322,120.24Z" transform="translate(120.47 12.82)" style="fill:url(#linear-gradient-10)"/><path d="M7.81,138.22s21.38-23.94,51.31-3.42,50.45-23.09,78.67-20.52,8.73,51,71.41,19.67c37.63-18.81,63.71-.86,86.8,4.27,13.74,3.06,37.77-21.17,53-27.36,27.36-11.12,58.29,2.65,58.15.85l18,13.69-48.75,72.69-327.53,6Z" transform="translate(120.47 12.82)" style="fill:url(#linear-gradient-11)"/></g><polygon points="163.04 75.74 163.04 90.75 409.48 194.51 409.48 178.36 163.04 75.74" style="fill:url(#linear-gradient-12)"/><polygon points="409.48 194.51 538.7 152.97 539.76 138.97 409.48 178.36 409.48 194.51" style="fill:url(#linear-gradient-13)"/><circle cx="382.05" cy="129.66" r="2.01" style="fill:url(#linear-gradient-14)"/></svg>