<svg id="Layer_1" data-name="Layer 1" xmlns="http://www.w3.org/2000/svg" xmlns:xlink="http://www.w3.org/1999/xlink" viewBox="0 0 695.83 272.18"><defs><style>.cls-1{fill:#eff4fb;}.cls-2{fill:url(#linear-gradient);}</style><linearGradient id="linear-gradient" x1="329.18" y1="-238.79" x2="329.18" y2="270.59" gradientUnits="userSpaceOnUse"><stop offset="0" stop-color="#6181c0"/><stop offset="0.04" stop-color="#5d7ebe"/><stop offset="0.36" stop-color="#4066b0"/><stop offset="0.39" stop-color="#3d61ad"/><stop offset="0.55" stop-color="#2b479c"/><stop offset="0.65" stop-color="#243d96"/><stop offset="1" stop-color="#293072"/></linearGradient></defs><title>Untitled-3</title><path class="cls-1" d="M656.21,241.94c-53.84-16.82-89-46.85-132.81-56.18-40.08-8.53-109.24-1.47-161.47,17.86,6.15,2.43,12.55,5.31,19.33,8.71C441.56,242.47,575.42,302.41,656.21,241.94Z" transform="translate(18.74 4.23)"/><path class="cls-2" d="M-18.74-4.23v143S-5.9,168.64,25.1,193.13C67.43,182,143.41,171,207.5,209.75c75.28-16.28,107.39-24.71,154.43-6.13,52.23-19.33,121.39-26.39,161.47-17.86,43.83,9.33,79,39.36,132.81,56.18a123.42,123.42,0,0,0,20.89-19.89V-4.23Z" transform="translate(18.74 4.23)"/><path class="cls-1" d="M25.1,193.13c27.6,21.81,69.59,39.3,129.77,27.53,19.73-3.86,37.1-7.55,52.63-10.91C143.41,171,67.43,182,25.1,193.13Z" transform="translate(18.74 4.23)"/></svg>