<svg id="Layer_2" data-name="Layer 2" xmlns="http://www.w3.org/2000/svg" viewBox="0 0 221.98 166.94">
  <title>unlock1</title>
  <circle cx="110.69" cy="83.47" r="83.47" style="fill: #e4f0f4"/>
  <g>
    <rect x="39.31" y="76.52" width="182.67" height="89.33" style="fill: #5f6f82"/>
    <circle cx="130.65" cy="121.19" r="24" style="fill: #505e6e"/>
    <path d="M140.54,116.24l13.55,9.11a1,1,0,0,1,0,1.66l-13.55,9.12a1,1,0,0,1-1.56-.83V117.07A1,1,0,0,1,140.54,116.24Z" transform="translate(-13.34 -4.16)" style="fill: #fff"/>
    <line x1="41.98" y1="161.02" x2="219.48" y2="161.02" style="fill: #fff;stroke: #fff;stroke-miterlimit: 10;stroke-width: 0.5px"/>
  </g>
  <g>
    <rect y="33.48" width="203.38" height="33.5" style="fill: #505e6e"/>
    <text transform="translate(11.6 57.89)" style="font-size: 22.393369674682617px;fill: #fff;font-family: FontAwesome, FontAwesome"></text>
    <rect x="43" y="33.48" width="34.33" height="33.5" style="fill: #5f6f82"/>
    <text transform="translate(90.12 53.85)" style="font-size: 11px;fill: #fff;font-family: Lato-Regular, Lato;letter-spacing: -0.07998934659090909em">T<tspan x="5.61" y="0" style="letter-spacing: -0.018998579545454544em">r</tspan><tspan x="9.83" y="0" style="letter-spacing: 0.00004438920454545455em">ack One</tspan></text>
  </g>
  <circle cx="158.98" cy="69.18" r="22.5" style="fill: #5ebf86"/>
  <path d="M184.4,69.25v3.07a.79.79,0,0,1-.77.77h-.77a.79.79,0,0,1-.77-.77V69.25a3.07,3.07,0,1,0-6.14,0v2.3h1.15a1.14,1.14,0,0,1,1.15,1.15v6.92a1.14,1.14,0,0,1-1.15,1.15H165.58a1.14,1.14,0,0,1-1.15-1.15V72.7a1.14,1.14,0,0,1,1.15-1.15h8.07v-2.3a5.38,5.38,0,0,1,10.75,0Z" transform="translate(-13.34 -4.16)" style="fill: #fff"/>
</svg>
